<?xml version="1.0" encoding="UTF-8" standalone="no"?>
<!-- Created with Inkscape (http://www.inkscape.org/) -->

<svg
   version="1.1"
   id="svg198"
   width="3413.6843"
   height="3111.9995"
   viewBox="0 0 3413.6843 3111.9995"
   sodipodi:docname="Pegasus6b.svg"
   inkscape:version="1.2.2 (732a01da63, 2022-12-09, custom)"
   xmlns:inkscape="http://www.inkscape.org/namespaces/inkscape"
   xmlns:sodipodi="http://sodipodi.sourceforge.net/DTD/sodipodi-0.dtd"
   xmlns="http://www.w3.org/2000/svg"
   xmlns:svg="http://www.w3.org/2000/svg">
  <defs
     id="defs202" />
  <sodipodi:namedview
     id="namedview200"
     pagecolor="#ffffff"
     bordercolor="#000000"
     borderopacity="0.25"
     inkscape:showpageshadow="2"
     inkscape:pageopacity="0.0"
     inkscape:pagecheckerboard="0"
     inkscape:deskcolor="#d1d1d1"
     showgrid="false"
     inkscape:zoom="0.22286184"
     inkscape:cx="1767.9114"
     inkscape:cy="1662.4649"
     inkscape:window-width="1846"
     inkscape:window-height="1016"
     inkscape:window-x="0"
     inkscape:window-y="0"
     inkscape:window-maximized="1"
     inkscape:current-layer="layer1" />
  <g
     inkscape:groupmode="layer"
     id="layer1"
     inkscape:label="Pegasus 6b">
    <path
       id="path316"
       style="fill:#000000;stroke-width:1.33333"
       d="M 2382.4821 224.10947 C 2378.8731 224.10947 2378.5834 224.47877 2378.5564 229.10947 C 2378.4737 243.43171 2368.9716 273.0825 2357.0857 296.10947 C 2334.6221 339.6288 2301.2578 373.63729 2243.9177 411.46494 C 2194.4205 444.11846 2146.5038 470.01615 2031.2517 526.40244 C 1876.5104 602.10846 1814.5428 634.95928 1743.9177 678.72861 C 1728.8844 688.04538 1712.3851 698.10945 1707.2517 701.09384 C 1672.5819 721.25006 1638.2908 754.61603 1612.9548 792.84775 C 1571.4666 855.45289 1543.0827 938.9105 1528.6325 1040.7755 C 1522.6748 1082.7728 1518.4745 1102.6567 1507.2302 1142.1095 C 1493.6533 1189.7464 1474.5645 1242.8662 1451.6482 1296.7755 C 1439.9144 1324.3783 1419.2836 1367.5207 1417.2028 1368.8067 C 1416.0728 1369.5051 1405.8976 1338.7025 1391.2048 1290.1095 C 1371.036 1223.4056 1358.1016 1196.2941 1337.2321 1176.9728 C 1332.7079 1172.7842 1325.939 1167.6046 1322.1892 1165.463 C 1316.4948 1162.2108 1315.8009 1161.4283 1317.9782 1160.713 C 1332.9035 1155.8099 1340.9608 1150.5382 1351.6442 1138.6915 L 1357.1306 1132.6075 L 1347.2966 1129.7149 C 1333.6617 1125.7034 1324.0832 1117.9543 1303.986 1094.672 C 1286.2018 1074.0691 1270.8042 1058.42 1263.2673 1053.2872 C 1260.7016 1051.5399 1258.6071 1049.8102 1258.6071 1049.4435 C 1258.6096 1049.0768 1260.9403 1047.7985 1263.7868 1046.6036 C 1267.5981 1045.0036 1269.4047 1043.2105 1270.6384 1039.7989 C 1272.0423 1035.9166 1273.9482 1034.3569 1282.4099 1030.17 L 1292.5075 1025.1739 L 1277.6618 1021.4317 C 1251.5977 1014.8621 1237.3179 1006.1119 1205.8786 977.44345 C 1195.826 968.27679 1183.4765 957.65954 1178.4353 953.8497 C 1173.3942 950.03988 1169.7145 946.67007 1170.2595 946.36142 C 1174.4926 943.96386 1191.8262 939.50428 1204.2439 937.61728 L 1219.2517 935.33603 L 1179.6755 915.04306 C 1128.6731 888.89223 1088.377 868.83615 1069.9177 860.41416 C 1018.5787 836.99087 974.2288 821.40084 939.4001 814.53134 C 924.24963 811.54312 892.61603 810.30726 885.13839 812.4122 L 881.69503 813.38291 L 885.47237 805.89072 C 888.07537 800.73024 889.25167 796.38511 889.25167 791.92197 L 889.25167 785.44345 L 880.91768 785.45322 C 855.16709 785.48846 825.22171 790.37277 799.64815 798.70713 C 791.06645 801.50387 783.7158 803.46226 783.31417 803.06064 C 782.91256 802.65902 782.58565 801.24006 782.58565 799.90634 C 782.58565 798.57263 780.66879 793.8273 778.32784 789.36142 C 774.11424 781.32305 774.02396 781.25091 769.32784 782.08994 C 742.49103 786.88462 659.88022 805.847 633.94307 813.16611 C 630.54045 814.1263 629.10067 813.62134 623.94307 809.66025 C 615.82488 803.42539 606.71481 799.44227 593.91768 796.5333 C 584.64649 794.42583 576.53527 794.09688 531.91768 794.02158 C 475.03033 793.92556 469.78808 793.3751 455.00557 785.93759 C 450.09137 783.46511 445.32181 781.4415 444.40596 781.4415 C 443.49011 781.4415 440.0932 784.8928 436.85714 789.10947 C 422.21137 808.19327 422.54398 815.41606 438.5876 826.67002 C 448.14716 833.37566 458.5555 838.26316 471.91768 842.32236 L 481.91768 845.36142 L 469.91768 844.67783 C 444.35534 843.22509 421.69083 841.27222 416.58565 840.08213 C 413.65231 839.39833 410.21735 838.82424 408.95284 838.80674 C 403.50905 838.73142 400.58069 853.6977 404.54073 861.35556 C 409.34517 870.64631 427.57105 882.10334 449.58565 889.67197 C 454.53565 891.3738 458.56046 893.0685 458.53096 893.43759 C 458.50147 893.80669 454.82501 896.80947 450.36104 900.10947 C 432.67528 913.18367 393.79139 954.85924 396.88057 957.42978 C 397.45134 957.90473 402.41769 959.99278 407.91768 962.06845 C 420.56883 966.84292 429.78088 971.40833 436.62471 976.29892 C 440.00444 978.71408 445.05848 980.67713 450.25167 981.59189 L 458.50753 983.04697 L 456.73018 987.24424 C 436.49582 1035.0165 414.70018 1086.1036 365.6462 1200.7364 C 297.73903 1359.4267 299.29163 1355.6574 295.85518 1369.9903 C 290.62347 1391.8111 292.90074 1400.746 307.69503 1416.4708 C 323.54561 1433.3184 325.99414 1437.5112 328.51339 1452.1095 C 331.18166 1467.5714 335.67403 1480.7502 341.22237 1489.3966 C 347.33137 1498.9166 369.6846 1519.8121 377.80635 1523.5938 C 385.65756 1527.2497 398.68874 1527.81 406.988 1524.8497 C 419.11923 1520.5225 430.14309 1509.1099 433.4626 1497.4415 C 435.76365 1489.3531 435.49146 1479.3549 432.54854 1463.7696 L 430.09346 1450.7618 L 433.28096 1446.4356 C 435.03455 1444.0559 442.83961 1434.3089 450.62471 1424.7755 C 458.4098 1415.2422 476.39997 1392.4428 490.60323 1374.1095 C 504.80649 1355.7761 518.70601 1337.8567 521.48995 1334.2892 C 527.25044 1326.9075 527.00627 1326.6402 529.8669 1343.4415 C 533.07258 1362.2695 532.85848 1363.6073 523.7419 1381.797 C 510.12767 1408.9603 494.36966 1433.8224 477.49385 1454.7638 L 471.59151 1462.086 L 478.75557 1468.5548 C 482.69517 1472.1118 488.46051 1476.79 491.56807 1478.9513 L 497.21846 1482.881 L 494.15401 1487.8282 C 484.06106 1504.1177 485.36815 1516.0149 498.14425 1524.1173 C 507.24503 1529.8887 513.84758 1531.4564 521.25167 1529.6036 C 539.01293 1525.1591 571.45383 1503.6233 592.58565 1482.2481 C 618.55376 1455.9811 623.69094 1437.0259 617.2419 1391.295 L 614.238 1369.9962 L 625.17745 1356.0528 C 634.37355 1344.3305 659.05323 1308.85 663.34346 1301.1837 C 664.11857 1299.7987 670.79439 1297.0594 680.59737 1294.1056 C 713.10273 1284.3114 740.54864 1271.7866 762.60128 1256.6837 L 773.06221 1249.5196 L 780.46065 1263.9806 C 805.87297 1313.6613 809.66469 1370.2597 793.15596 1453.4415 C 790.90007 1464.8082 786.03631 1487.0089 782.34737 1502.7755 C 778.65842 1518.5422 773.39723 1542.3944 770.65596 1555.7813 L 765.67159 1580.1212 L 759.79464 1584.7013 C 746.33483 1595.1877 727.45824 1622.3239 712.44112 1652.7755 C 702.74861 1672.4299 702.39283 1673.5248 691.84737 1716.1095 C 666.56827 1818.1915 662.7754 1840.6465 661.66573 1894.7755 C 661.09529 1922.6015 661.42162 1934.7772 663.20284 1952.0821 C 665.63615 1975.722 670.5081 2005.5173 674.47042 2020.9845 L 676.9294 2030.5782 L 667.42354 2031.2599 C 619.20973 2034.7191 600.23194 2037.2352 575.91768 2043.3907 C 546.07754 2050.9449 519.98891 2062.559 501.16573 2076.6681 C 494.97994 2081.3047 487.81833 2085.5503 485.25167 2086.1036 C 471.30651 2089.1098 393.70986 2110.1183 379.04659 2114.8575 C 339.09563 2127.7696 310.76778 2141.7507 282.87667 2162.3224 C 259.47038 2179.5862 254.72952 2185.4903 240.75167 2214.7755 C 224.99614 2247.7853 215.04842 2285.235 208.56026 2335.9669 L 206.44698 2352.4903 L 218.58175 2376.4649 C 285.07096 2507.8168 427.27408 2721.5679 491.22237 2786.2833 C 505.42488 2800.6561 521.60575 2811.7091 545.91768 2823.6427 C 572.5019 2836.6917 594.03465 2843.1307 634.58565 2850.1583 C 649.58592 2852.758 664.21643 2856.6003 687.94893 2864.1759 C 749.35888 2883.7783 766.8513 2887.946 792.47042 2889.0802 C 807.42414 2889.7422 809.58934 2889.5808 808.92354 2887.8458 C 808.33876 2886.3219 813.3608 2883.5281 830.08956 2876.0724 C 842.15226 2870.6964 851.84825 2865.6437 851.63643 2864.8438 C 851.42463 2864.0438 832.73159 2829.0222 810.09542 2787.0177 C 787.45924 2745.0129 769.1632 2710.4206 769.43721 2710.1466 C 769.71124 2709.8726 778.33127 2712.0337 788.59346 2714.9493 C 919.19734 2752.0561 1123.6886 2789.7006 1221.3474 2794.6134 C 1249.0714 2796.008 1266.7889 2794.7801 1283.9177 2790.2774 C 1323.8802 2779.7721 1349.1107 2766.7117 1399.9177 2730.2345 C 1405.4177 2726.2857 1424.9979 2714.9288 1443.4294 2704.9962 C 1479.9859 2685.2958 1489.2418 2679.8704 1507.0427 2667.7052 C 1520.2868 2658.6543 1540.8277 2638.8281 1538.4704 2637.3712 C 1537.4546 2636.7436 1539.5836 2629.3152 1545.154 2614.0509 C 1549.6497 2601.7315 1552.8617 2591.2502 1552.2907 2590.7579 C 1551.7196 2590.2656 1498.4509 2575.0705 1433.9177 2556.9923 C 1369.3843 2538.9142 1312.5945 2522.9805 1307.7165 2521.5821 L 1298.8454 2519.0392 L 1289.0681 2553.2403 C 1279.6023 2586.3493 1279.2902 2587.9115 1279.2712 2602.1095 C 1279.2607 2610.1761 1279.5108 2620.6458 1279.8278 2625.3751 L 1280.404 2633.9728 L 1271.1853 2637.752 C 1258.0308 2643.1432 1247.1739 2645.73 1237.6052 2645.754 C 1227.6707 2645.7794 1223.2598 2643.3774 1220.3122 2636.338 C 1216.1997 2626.5169 1221.0943 2604.2261 1229.8982 2592.6837 C 1231.7423 2590.266 1233.2517 2587.9912 1233.2517 2587.629 C 1233.2517 2586.0315 1210.9953 2578.5961 1202.0485 2577.2052 C 1189.5073 2575.2555 1178.9638 2576.8867 1156.0564 2584.3165 C 1134.1632 2591.4173 1129.9873 2593.6427 1125.7536 2600.4688 C 1123.8299 2603.5704 1121.1212 2607.3573 1119.7341 2608.8829 L 1117.2107 2611.6563 L 1067.5642 2605.3536 C 994.39474 2596.0633 961.48177 2589.8818 935.49776 2580.5489 C 904.34563 2569.3598 883.3753 2553.0929 873.59737 2532.5353 C 864.6259 2513.6732 864.74968 2496.7589 874.00167 2477.4532 C 882.8859 2458.9149 892.71147 2446.6893 929.19698 2408.7755 C 944.0168 2393.3755 959.41232 2376.5085 963.40792 2371.2931 C 971.12541 2361.2195 983.95026 2339.5085 994.30245 2318.9942 L 1000.5857 2306.547 L 1011.9177 2307.3575 C 1076.5438 2311.9876 1182.3215 2317.7551 1246.3064 2320.1368 C 1295.8532 2321.9813 1409.3775 2321.9949 1443.9177 2320.1603 C 1554.357 2314.2946 1642.2821 2300.006 1744.5857 2271.2989 C 1763.4924 2265.9936 1820.7634 2248.4362 1826.9177 2246.0587 C 1828.201 2245.5631 1829.2517 2245.5917 1829.2517 2246.1231 C 1829.2517 2246.6546 1827.4353 2255.8276 1825.2146 2266.506 C 1814.8977 2316.1163 1812.3893 2367.9892 1816.531 2446.1095 C 1817.7362 2468.8427 1819.0517 2511.1428 1819.4548 2540.1095 L 1820.1892 2592.7755 L 1805.9177 2634.7755 C 1755.9446 2781.8599 1709.0376 2904.3658 1675.4763 2975.4435 C 1664.2435 2999.2329 1650.0555 3026.2111 1646.904 3029.7735 C 1645.7695 3031.0559 1637.8845 3035.7948 1629.3806 3040.3028 C 1582.9501 3064.9164 1545.2614 3088.1942 1520.3982 3107.6153 C 1500.8299 3122.9003 1488.4736 3134.5174 1467.4919 3157.3614 C 1457.0927 3168.6835 1439.6582 3187.2842 1428.7478 3198.6954 C 1407.3543 3221.0708 1390.9029 3240.7661 1381.5915 3255.1485 C 1374.5261 3266.0615 1362.86 3288.4429 1362.5212 3291.7364 C 1362.3862 3293.0421 1362.3474 3303.5595 1362.4314 3315.1095 L 1362.5837 3336.1095 L 1487.1618 3336.1095 C 1604.6599 3336.1095 1611.776 3335.9763 1612.4138 3333.7755 C 1612.7855 3332.4922 1613.507 3323.4148 1614.0173 3313.6036 C 1614.8414 3297.7579 1615.2231 3295.6927 1617.4314 3295.1153 C 1618.7987 3294.7578 1619.9177 3294.3227 1619.9177 3294.1485 C 1619.9177 3293.9745 1617.2912 3288.1932 1614.0817 3281.3028 C 1604.7894 3261.3527 1600.9221 3249.5326 1601.82 3243.8302 C 1604.772 3225.081 1619.391 3193.8934 1629.4802 3184.8224 C 1637.1132 3177.9598 1642.9191 3176.3224 1651.0153 3178.7481 C 1666.0495 3183.2525 1685.849 3205.0135 1698.7888 3231.254 C 1703.7546 3241.3239 1703.2386 3241.4026 1716.1872 3228.5821 C 1730.8259 3214.0881 1736.2913 3199.1795 1742.5857 3156.5665 C 1744.735 3142.0147 1746.964 3128.5947 1747.5388 3126.7442 C 1748.1136 3124.8937 1766.3366 3098.4944 1788.0329 3068.0782 C 1809.7293 3037.6622 1846.5812 2985.7755 1869.9274 2952.7755 C 1925.403 2874.3605 1950.1193 2840.1834 1960.6755 2827.2892 C 1995.9819 2784.1634 2001.775 2773.9244 2009.2536 2741.4415 C 2015.1048 2716.0264 2032.0048 2674.4469 2055.8142 2626.881 C 2073.5031 2591.5424 2083.1671 2573.8505 2124.8532 2500.5079 L 2157.5915 2442.9083 L 2171.7556 2450.3829 C 2196.1476 2463.2558 2221.3607 2477.4632 2234.5524 2485.7696 C 2285.2744 2517.7076 2321.272 2557.6022 2349.9274 2613.6329 C 2359.8463 2633.0278 2360.1878 2634.0014 2359.3278 2640.4845 C 2355.391 2670.1609 2328.2165 2721.9645 2256.0173 2837.4415 C 2225.7554 2885.8429 2210.3666 2914.4859 2198.8591 2943.8263 C 2182.1452 2986.4412 2169.3277 3036.3649 2162.4978 3085.4415 C 2160.0104 3103.3157 2159.7157 3110.0715 2160.3278 3135.4415 C 2161.0372 3164.8463 2163.1687 3183.9798 2169.1657 3214.7755 C 2174.4787 3242.0583 2176.0584 3247.97 2177.8532 3247.2813 C 2178.8653 3246.8929 2184.9269 3253.4158 2192.7399 3263.3028 C 2199.9879 3272.4745 2206.2342 3280.0071 2206.6208 3280.0431 C 2207.3586 3280.1112 2400.2192 3122.9501 2404.2399 3119.004 C 2406.4409 3116.8438 2405.9364 3115.9467 2394.572 3101.7931 C 2387.9783 3093.581 2382.5837 3085.9843 2382.5837 3084.9103 C 2382.5837 3083.8363 2377.2506 3078.431 2370.7321 3072.9005 C 2354.8891 3059.459 2353.0093 3056.9943 2348.6618 3043.9532 C 2343.8435 3029.4995 2342.6824 3013.0374 2345.7399 3002.5196 C 2351.7721 2981.7702 2376.7728 2969.5916 2402.8142 2974.7149 C 2413.2399 2976.766 2419.5685 2979.9347 2430.4196 2988.5353 C 2436.3976 2993.2736 2438.6936 2994.5073 2438.1521 2992.6915 C 2437.7285 2991.2711 2436.1149 2985.0604 2434.5661 2978.8907 C 2431.4618 2966.5254 2429.205 2961.5597 2420.5837 2948.1095 C 2410.8223 2932.8809 2408.8239 2928.1343 2408.8239 2920.1095 C 2408.8168 2910.5013 2411.2198 2905.3331 2428.6833 2877.4083 C 2442.7445 2854.9239 2453.5364 2838.6268 2522.7067 2735.4415 C 2572.6559 2660.9293 2593.8103 2626.0981 2614.1267 2584.9103 L 2624.5837 2563.711 L 2624.5642 2552.9103 C 2624.5391 2539.2759 2623.3327 2536.5986 2604.1989 2507.6895 C 2596.0531 2495.3823 2589.0477 2484.2379 2588.6306 2482.9239 C 2588.0823 2481.1966 2584.1264 2479.53 2574.3493 2476.9083 C 2514.3172 2460.8103 2458.5281 2419.9821 2453.8396 2388.7169 C 2452.6143 2380.5459 2455.2263 2360.1224 2459.2927 2346.0899 C 2470.2882 2308.1473 2486.8687 2277.7541 2541.1228 2196.0841 C 2577.2091 2141.7625 2582.8964 2132.1605 2588.031 2116.881 C 2596.8996 2090.4894 2602.1406 2049.0068 2600.8493 2015.4415 C 2600.3189 2001.6556 2600.7143 1989.6423 2602.1189 1976.7755 C 2604.9695 1950.6615 2604.9333 1910.264 2602.0427 1890.1095 C 2596.3296 1850.2758 2585.9163 1818.6181 2564.7595 1776.7755 C 2559.9391 1767.2422 2555.0779 1755.867 2553.9567 1751.4962 C 2547.8044 1727.5148 2555.8689 1698.7242 2578.2849 1664.6505 C 2588.4502 1649.1986 2597.8929 1637.9003 2616.4314 1619.002 C 2683.9139 1550.2108 2785.535 1491.7827 2868.5837 1474.0274 C 2890.6064 1469.3191 2921.3006 1468.1293 2937.2712 1471.3653 C 2966.5169 1477.2913 2979.8769 1488.1612 3037.3396 1552.7755 C 3101.1386 1624.5149 3131.3216 1652.8713 3174.4743 1681.6075 C 3251.1134 1732.6429 3328.851 1742.3135 3413.1052 1711.295 C 3434.1541 1703.5457 3476.3572 1681.7347 3490.3064 1671.3966 C 3490.5206 1671.2381 3489.6992 1668.6201 3488.4821 1665.5782 C 3486.4246 1660.4362 3485.9763 1660.0976 3482.0935 1660.7618 C 3451.4854 1665.9979 3419.1358 1668.6569 3397.9177 1667.6817 C 3368.5622 1666.3324 3348.541 1661.2962 3323.9177 1649.0645 L 3309.9177 1642.1095 L 3319.9177 1641.2833 C 3325.4177 1640.8292 3337.4171 1640.3784 3346.5837 1640.2794 C 3380.6204 1639.9138 3421.4481 1636.6254 3449.9177 1631.9591 C 3534.1674 1618.1502 3584.7659 1580.0946 3613.9919 1508.5548 C 3619.9517 1493.9661 3621.9969 1481.6927 3618.2282 1483.1388 C 3617.2997 1483.4952 3605.3526 1487.4369 3591.6794 1491.8985 C 3526.8522 1513.0517 3479.9947 1519.6289 3433.1618 1514.1505 C 3380.2014 1507.9554 3333.4718 1485.6355 3290.9177 1446.2091 C 3286.3343 1441.9627 3282.5837 1438.0276 3282.5837 1437.4649 C 3282.5837 1436.9023 3284.5343 1436.0545 3286.9177 1435.5802 C 3305.6186 1431.8587 3312.6134 1428.9006 3329.1892 1417.7052 C 3338.3896 1411.491 3346.4221 1405.9544 3347.0388 1405.4024 C 3347.6556 1404.8505 3341.6484 1402.8427 3333.6892 1400.9395 C 3285.7995 1389.4887 3256.3458 1374.2952 3193.9177 1328.836 C 3159.7051 1303.9232 3154.0954 1300.0365 3140.0857 1291.5431 C 3112.7175 1274.9511 3086.6682 1263.6739 3057.5036 1255.7931 C 3048.9308 1253.4766 3041.7272 1251.4602 3041.4958 1251.3126 C 3041.2643 1251.165 3042.8696 1247.8343 3045.0622 1243.9103 C 3050.8139 1233.6161 3053.7236 1222.4073 3052.8474 1213.9181 C 3052.1162 1206.8338 3044.9102 1191.0734 3041.8689 1189.9063 C 3041.0299 1189.5844 3035.8236 1191.9933 3030.2985 1195.2599 C 3002.201 1211.8715 2979.3616 1218.3027 2911.2517 1228.7833 C 2889.2517 1232.1686 2864.351 1236.4631 2855.9177 1238.3263 C 2802.295 1250.1732 2760.668 1272.7466 2727.8044 1307.7989 C 2716.5538 1319.7988 2700.7006 1340.6662 2693.5681 1352.8653 C 2690.8268 1357.554 2688.0665 1361.4021 2687.4333 1361.4161 C 2685.9528 1361.449 2687.4595 1350.6967 2690.1384 1342.1095 C 2691.2824 1338.4429 2698.3759 1322.2429 2705.9021 1306.1095 C 2718.2473 1279.6454 2726.5837 1259.4487 2726.5837 1256.0079 C 2726.5837 1255.3064 2724.41 1253.6954 2721.7517 1252.4278 L 2716.9177 1250.1231 L 2710.7517 1257.2774 C 2686.3981 1285.5343 2652.3448 1333.2046 2630.2458 1369.9747 C 2590.0236 1436.8998 2562.9339 1500.7328 2518.4392 1633.4415 C 2508.973 1661.6748 2500.9319 1685.5816 2500.5681 1686.5665 C 2500.1433 1687.7166 2494.3051 1683.0058 2484.2458 1673.3946 C 2400.916 1593.7769 2289.4928 1542.5808 2170.5837 1529.2755 C 2150.6807 1527.0489 2088.0964 1527.0027 2066.5837 1529.1993 C 2046.8243 1531.2169 2010.9267 1536.6219 1993.4372 1540.213 C 1986.5732 1541.6224 1980.4238 1542.7755 1979.7712 1542.7755 C 1976.6722 1542.7755 1979.3205 1539.708 1986.8142 1534.6192 C 1997.5886 1527.3024 2014.462 1511.1034 2022.5329 1500.3263 C 2034.9872 1483.696 2042.8411 1464.224 2045.4255 1443.5704 L 2046.9431 1431.4435 L 2059.2634 1419.4435 C 2079.5931 1399.6418 2095.0494 1375.938 2102.9724 1352.4103 C 2105.7616 1344.1271 2107.0613 1342.1463 2112.072 1338.5528 C 2144.9008 1315.0087 2170.7934 1276.2808 2180.4958 1236.211 C 2182.3337 1228.6212 2184.0052 1222.2816 2184.2107 1222.1231 C 2184.416 1221.9645 2189.0837 1219.2546 2194.5837 1216.0997 C 2259.4852 1178.8709 2292.6038 1124.7225 2295.5524 1051.0157 L 2296.3161 1031.922 L 2311.5915 1017.0157 C 2356.5943 973.10021 2382.5837 917.78456 2382.5837 865.92002 C 2382.5837 849.48457 2382.6587 849.0651 2386.4099 844.30088 C 2400.657 826.2066 2417.6121 794.97719 2424.5056 774.13095 C 2432.5528 749.7961 2433.8909 724.28299 2428.0114 707.33603 L 2425.1989 699.22861 L 2428.6149 690.15634 C 2435.1293 672.84931 2436.4424 663.98564 2436.3278 638.10947 C 2436.2451 619.39281 2435.6395 611.4678 2433.5759 602.10947 C 2430.9634 590.25966 2430.9634 590.06418 2433.4958 586.4708 C 2437.4443 580.8682 2443.3261 567.04816 2445.8493 557.44345 C 2448.9391 545.68088 2450.0557 514.62915 2447.9919 497.89658 C 2446.1811 483.21667 2442.388 464.89374 2438.6189 452.62119 L 2436.1149 444.46494 L 2440.0036 432.06064 C 2453.3523 389.48333 2448.9585 353.42201 2427.7692 331.63291 L 2420.113 323.75986 L 2420.8474 312.26767 C 2422.627 284.40324 2412.0466 254.15432 2392.529 231.30869 C 2387.6895 225.64401 2385.5485 224.10947 2382.4821 224.10947 z M 747.51534 2245.6056 C 747.75945 2245.7361 747.72856 2246.019 747.47237 2246.4435 C 745.93115 2248.9971 742.37301 2275.0681 741.4626 2290.4845 L 740.45284 2307.6036 L 717.65987 2348.1895 C 673.41503 2426.9768 660.72125 2457.2904 653.37862 2501.6954 C 648.76662 2529.5869 648.49179 2539.0796 651.8962 2552.8165 C 658.92253 2581.168 673.49791 2612.4142 695.47432 2646.2384 C 697.2126 2648.9139 696.5979 2649.4009 681.17159 2657.5724 C 663.27629 2667.0518 653.56243 2674.7115 641.17745 2689.1095 C 636.60413 2694.4261 631.89857 2698.7489 630.72237 2698.7169 C 626.65561 2698.6041 603.84442 2686.0874 597.13057 2680.2853 C 584.48184 2669.3543 583.47809 2660.311 593.80245 2650.3106 C 600.28899 2644.0277 613.99394 2636.7803 621.91768 2635.4435 C 630.16259 2634.0525 631.91768 2633.392 631.91768 2631.6778 C 631.91768 2630.8054 628.97049 2624.0958 625.3669 2616.7677 C 615.11502 2595.9196 606.06079 2588.0221 573.91768 2571.8868 C 556.62412 2563.2057 559.19048 2563.6309 540.34932 2566.3087 L 534.78292 2567.1017 L 503.51339 2525.2716 C 457.86064 2464.1999 440.86031 2438.0288 429.06612 2410.672 C 411.8755 2370.798 413.83016 2337.5107 434.65792 2315.4884 C 442.46329 2307.2354 449.86767 2302.484 460.98214 2298.5938 C 477.96753 2292.6488 485.12987 2291.9726 543.25167 2290.8302 C 606.25403 2289.592 610.83558 2289.0376 648.56612 2278.0763 C 667.96828 2272.4396 718.14053 2255.766 736.53096 2248.8438 C 743.57241 2246.1934 746.78302 2245.214 747.51534 2245.6056 z "
       transform="translate(-206.44698,-224.10947)" />
    <g
       id="layer3"
       inkscape:label="Hooves"
       style="fill:#666666">
      <path
         style="fill:#666666;stroke-width:1.33333"
         d="m 2300.8493,3188.3031 c 47.8122,-38.9911 87.3144,-71.5126 87.7825,-72.27 0.7555,-1.2223 -2.8921,-6.5423 -13.1347,-19.1567 l -3.1665,-3.8997 -19.8731,15.1877 c -61.1405,46.7261 -161.6753,126.7283 -163.0788,129.7725 -0.2944,0.6386 3.8895,6.7683 9.2974,13.6218 9.6718,12.2573 9.8766,12.4214 12.5372,10.0489 1.4876,-1.3265 41.8237,-34.3136 89.636,-73.3045 z"
         transform="translate(-206.44698,-224.10947)"
         id="path347" />
      <path
         style="fill:#666666;stroke-width:1.33333"
         d="m 1600.7524,3280.9485 c -0.3633,-0.8281 -2.7777,-6.8029 -5.3653,-13.2773 -4.2184,-10.5548 -5.6973,-12.6913 -14.3069,-20.6667 -30.4938,-28.248 -59.6242,-48.7036 -95.477,-67.045 l -14.9813,-7.664 -15.1373,15.5736 c -39.1258,40.2536 -55.801,60.0513 -68.8398,81.7308 -3.697,6.1469 -6.7225,11.4762 -6.7232,11.8429 -8e-4,0.3667 49.8344,0.7443 110.745,0.8391 81.8421,0.1266 110.574,-0.2206 110.0858,-1.3334 z"
         transform="translate(-206.44698,-224.10947)"
         id="path345" />
      <path
         style="fill:#666666;stroke-width:1.33333"
         d="m 1601.8344,3316.4428 c 0.4375,-4.95 1.0456,-11.7545 1.3515,-15.1212 l 0.5561,-6.1213 -36.1286,-0.8787 c -46.483,-1.1307 -160.3994,-1.1367 -178.8214,-0.013 l -14.2074,0.8692 v 14.2418 c 0,7.8331 0.4,14.6419 0.8889,15.1307 0.4888,0.4889 51.4411,0.8889 113.2272,0.8889 h 112.3383 l 0.7954,-9 z"
         transform="translate(-206.44698,-224.10947)"
         id="path343" />
      <path
         style="fill:#666666;stroke-width:1.33333"
         d="m 2192.8487,3219.024 c 27.8311,-23.0927 131.5055,-104.7185 162.043,-127.5812 4.8974,-3.6667 8.932,-7.0312 8.9654,-7.4767 0.033,-0.4454 -4.8402,-5.2353 -10.8304,-10.6441 l -10.891,-9.8341 -20.7756,-3.6872 c -28.1367,-4.9936 -51.9156,-6.1158 -66.5903,-3.1423 -20.0264,4.0579 -41.1275,13.9273 -67.5445,31.592 -12.016,8.0349 -13.7723,9.6993 -14.537,13.7753 -1.3706,7.3062 -0.9668,47.0726 0.6254,61.5835 1.6164,14.7304 8.9165,58.8481 10.0378,60.6625 1.0699,1.7311 1.1194,1.7038 9.4972,-5.2477 z"
         transform="translate(-206.44698,-224.10947)"
         id="path351" />
      <path
         style="fill:#666666;stroke-width:1.33333"
         d="m 819.91791,2867.568 c 8.43333,-3.8972 15.19422,-7.7369 15.02421,-8.5328 -0.39008,-1.8261 -81.46647,-152.3821 -83.15611,-154.418 -0.6858,-0.8263 -4.68668,-2.4708 -8.89084,-3.6545 -5.56464,-1.5667 -8.58182,-3.3355 -11.09181,-6.5027 -9.06125,-11.4336 -23.78801,-30.4273 -25.62273,-33.0468 l -2.05027,-2.9271 -5.4224,3.0475 -5.42241,3.0476 4.90204,8.7641 c 2.69612,4.8203 21.20889,41.4642 41.13949,81.4308 47.53471,95.321 60.67245,120.0578 63.69957,119.9388 0.85686,-0.033 8.45792,-3.2498 16.89126,-7.1469 z"
         transform="translate(-206.44698,-224.10947)"
         id="path367" />
      <path
         style="fill:#666666;stroke-width:1.33333"
         d="m 787.60132,2874.4428 c -5.34215,-8.1909 -29.7294,-55.4729 -54.50104,-105.6667 -24.20727,-49.0501 -48.16321,-96.092 -49.73521,-97.664 -0.7761,-0.776 -11.45824,4.883 -16.58362,8.7854 -2.45838,1.8718 -10.7414,10.4737 -18.40669,19.1152 l -13.93691,15.7118 2.12027,19.6926 c 4.4822,41.6294 9.52789,77.3992 14.07573,99.785 1.34992,6.6448 1.4819,6.7872 7.78326,8.4023 3.52552,0.9035 22.25546,6.7236 41.62209,12.9335 43.26723,13.8737 72.115,21.1948 85.69872,21.749 3.6604,0.1494 3.73825,0.031 1.8634,-2.8441 z"
         transform="translate(-206.44698,-224.10947)"
         id="path365" />
      <path
         style="fill:#666666;stroke-width:1.33333"
         d="m 1531.6872,2616.3825 c 3.4954,-9.5877 5.4759,-16.8581 4.7704,-17.5124 -0.6636,-0.6152 -49.8064,-14.734 -109.2064,-31.375 -59.4,-16.641 -110.7622,-31.052 -114.1384,-32.0246 l -6.1385,-1.7682 -4.2908,15.3298 c -2.3599,8.4315 -4.0829,15.5379 -3.8288,15.7919 0.254,0.254 13.3472,4.3467 29.0959,9.0947 15.7486,4.7481 49.334,15.2285 74.634,23.29 74.3733,23.6978 117.328,36.3964 121.2296,35.8385 1.1248,-0.1608 4.328,-6.9411 7.873,-16.6647 z"
         transform="translate(-206.44698,-224.10947)"
         id="path375" />
      <path
         style="fill:#666666;stroke-width:1.33333"
         d="m 1409.0516,2710.2691 c 7.0764,-3.9456 24.1122,-13.2391 37.8572,-20.6523 13.7451,-7.4132 30.3772,-16.8103 36.9604,-20.8825 13.4526,-8.3214 33.932,-23.186 33.0959,-24.022 -0.3012,-0.3012 -11.01,-3.53 -23.7975,-7.1752 -23.4329,-6.6796 -43.0446,-12.7519 -119.9164,-37.1284 -64.5921,-20.4827 -77.2317,-23.95 -78.7057,-21.5908 -3.2196,5.1528 -4.2029,17.0286 -3.2681,39.4674 l 0.963,23.1178 8.8387,7.1066 c 26.8376,21.5788 90.562,67.9243 94.6392,68.8294 0.2569,0.057 6.2569,-3.1244 13.3333,-7.07 z"
         transform="translate(-206.44698,-224.10947)"
         id="path371" />
    </g>
    <g
       id="layer8"
       inkscape:label="Tail"
       style="fill:#ff6600">
      <path
         style="fill:#ff6600;stroke-width:1.33333"
         d="m 2545.1619,1704.4092 c 13.1238,-44.0669 64.0816,-104.0272 126.756,-149.1492 66.8886,-48.156 134.2746,-80.0929 197.1567,-93.4404 14.7455,-3.13 19.9156,-3.5796 41.51,-3.6107 27.7373,-0.04 36.0196,1.3875 52.4255,9.0344 19.7318,9.1972 33.4337,22.009 83.4654,78.043 39.0251,43.7068 57.003,62.576 77.4424,81.2813 52.882,48.3959 100.8042,75.4411 153.2555,86.4908 14.666,3.0896 19.8892,3.5324 42.0779,3.5675 33.315,0.052 56.0789,-4.0471 88.2426,-15.8927 13.4959,-4.9704 51.7255,-23.1 50.7558,-24.0699 -0.3003,-0.3001 -5.2255,0.048 -10.9448,0.7727 -19.1524,2.4283 -46.211,3.0708 -61.387,1.4577 -37.8342,-4.0214 -65.73,-14.8625 -98.7032,-38.3589 l -14.6301,-10.4253 20,-0.2918 c 33.8555,-0.494 99.5859,-3.0098 114.8481,-4.396 103.3834,-9.3894 155.9364,-39.23 189.2515,-107.4606 3.9785,-8.1483 7.2337,-15.4602 7.2337,-16.2488 0,-0.83 -4.9129,0.2356 -11.6666,2.5304 -18.8696,6.4114 -48.9859,14.2356 -68.4648,17.787 -102.0275,18.6016 -185.9178,-8.2792 -255.2692,-81.7954 -4.9398,-5.2364 -8.7454,-9.7184 -8.457,-9.9602 0.2883,-0.2417 10.8654,-2.9965 23.5043,-6.1216 16.2204,-4.0108 24.7961,-6.8338 29.154,-9.5976 3.3956,-2.1534 5.9504,-4.1388 5.6772,-4.412 -0.2732,-0.2732 -7.0924,-2.6712 -15.1539,-5.3289 -19.9969,-6.5924 -56.4456,-24.8433 -76.8742,-38.4931 -9.286,-6.2046 -27.2043,-18.8941 -39.8183,-28.1988 -64.4536,-47.5441 -102.0321,-66.0993 -153.8268,-75.9554 -5.7908,-1.1019 -10.6985,-2.1734 -10.9061,-2.381 -0.2078,-0.2076 2.8865,-5.4697 6.8758,-11.6935 8.1102,-12.6527 12.559,-23.2209 12.559,-29.8338 0,-4.2551 -2.3315,-12.8156 -3.4904,-12.8156 -0.3096,0 -5.944,2.7026 -12.521,6.0057 -15.5498,7.8096 -26.6128,11.9179 -44.8414,16.6522 -13.9307,3.6181 -25.7966,5.7362 -89.1472,15.913 -70.3314,11.2982 -109.1586,28.1819 -145.7627,63.3835 -22.1369,21.2887 -36.3721,40.3713 -53.1345,71.2283 l -8.2478,15.1826 -2.1273,-5.0914 c -9.9968,-23.9258 -8.1525,-44.6348 6.5801,-73.8901 5.7427,-11.4034 11.387,-24.0505 10.7335,-24.0505 -0.7623,0 -24.622,32.5931 -35.6263,48.6667 -21.4554,31.3391 -45.3069,73.3539 -62.2717,109.6931 -23.9204,51.2381 -40.1489,93.917 -73.706,193.8376 l -18.6493,55.5305 10.4662,12.4695 c 5.7564,6.8581 12.537,15.3626 15.0679,18.8989 l 4.6016,6.4297 1.6516,-11.4405 c 0.9084,-6.2923 2.8593,-15.4959 4.3353,-20.4524 z"
         transform="translate(-206.44698,-224.10947)"
         id="path397" />
    </g>
    <g
       id="layer7"
       inkscape:label="Wing"
       style="fill:#ffcc00">
      <path
         style="fill:#ffcc00;stroke-width:1.33333"
         d="m 1418.1086,1732.8671 c 4.8197,-4.5738 18.573,-11.5628 29.8093,-15.1482 32.4815,-10.3645 69.6624,-17.2724 188,-34.9286 109.9037,-16.3979 155.1515,-24.5088 201.3333,-36.09 47.49,-11.9092 81.098,-25.1058 99.5655,-39.0954 8.3987,-6.3621 15.9816,-16.1005 17.236,-22.135 0.3842,-1.8483 2.8,-8.3668 5.3684,-14.4856 4.5434,-10.8236 9.8302,-28.9178 9.8302,-33.6438 0,-1.4208 4.2965,-5.353 10.92,-9.9942 20.5317,-14.387 37.4572,-33.6792 46.498,-53 5.2836,-11.2912 9.2486,-27.5931 9.2486,-38.024 v -8.694 l 14.3334,-13.5718 c 7.8833,-7.4645 17.9288,-18.5756 22.3233,-24.6912 9.5769,-13.3281 19.4485,-32.5577 22.6644,-44.1499 2.2296,-8.0371 2.7807,-8.757 11.5636,-15.1059 19.4661,-14.0717 39.7679,-38.1327 51.008,-60.4532 6.0617,-12.0374 13.9696,-35.3236 15.0267,-44.2485 0.4318,-3.6463 1.4517,-7.4828 2.2662,-8.5256 0.8146,-1.0428 7.4811,-5.3136 14.8144,-9.4907 20.0083,-11.3968 32.7027,-21.0223 46.3946,-35.1787 28.8162,-29.794 44.1614,-64.5398 49.08,-111.1311 0.7918,-7.5014 1.1146,-18.1389 0.7172,-23.6389 l -0.7227,-10 8.1243,-6.6666 c 11.3569,-9.3193 28.9254,-28.51284 39.0749,-42.68875 17.0105,-23.75921 28.6613,-47.93265 35.6548,-73.97798 3.7021,-13.78699 4.1451,-17.50611 4.3921,-36.87816 l 0.2748,-21.54483 5.9878,-7.78851 c 22.3906,-29.1245 39.0882,-66.16768 42.3232,-93.89281 1.7518,-15.01459 0.2686,-27.48855 -4.5166,-37.98489 l -3.08,-6.75587 3.107,-6.11332 c 7.2736,-14.31221 12.1318,-43.38396 10.535,-63.04161 -1.0426,-12.83611 -4.2744,-32.76042 -6.087,-37.52792 -1.1135,-2.92874 -0.5956,-4.52939 3.4257,-10.58779 11.0251,-16.60996 16.0685,-39.235 14.8741,-66.72468 -0.8016,-18.44607 -5.1445,-43.29109 -10.5973,-60.62463 l -3.1044,-9.86832 3.6227,-11.33333 c 10.403,-32.54484 10.7796,-62.35535 1.0321,-81.70733 -4.1541,-8.24724 -10.8715,-16.01572 -16.4319,-19.00292 l -4.8825,-2.62308 1.0677,-8.66667 c 2.5611,-20.78744 -0.6954,-42.20097 -8.951,-58.85804 -4.5263,-9.13248 -12.155,-21.13519 -13.4358,-21.13939 -0.4332,-0.001 -1.5526,3.44743 -2.4874,7.6641 -12.9215,58.28562 -53.1336,112.24249 -118.0119,158.34885 -55.2832,39.28748 -106.3949,66.72752 -304.0461,163.23109 -83.4594,40.74922 -154.7243,79.51319 -214.6667,116.76612 -13.2,8.20354 -29.7138,18.24607 -36.6971,22.31675 -18.9167,11.02664 -33.4691,22.45667 -51.3267,40.31383 -62.8458,62.84476 -103.7413,161.41026 -122.7614,295.87759 -6.9556,49.1747 -16.3406,87.3771 -35.7386,145.4791 -18.686,55.9691 -38.9581,106.3619 -63.829,158.6667 -7.3227,15.4 -13.9858,29.95 -14.8068,32.3333 -0.8211,2.3833 -1.8931,4.3333 -2.3822,4.3333 -0.489,0 -4.2136,6.2255 -8.2769,13.8344 -37.1376,69.545 -74.6489,112.8323 -97.7764,112.8323 -4.5097,0 -5.7383,0.4848 -5.7383,2.2645 0,3.4991 6.6358,24.4354 9.636,30.4022 7.4712,14.8585 22.1954,28.2822 41.6952,38.0129 15.0176,7.4939 25.7971,17.7205 29.7144,28.1908 5.2676,14.0789 5.0987,20.4836 -1.7152,65.0389 -1.7018,11.129 -1.8397,15.7932 -0.6893,23.3334 1.7825,11.6838 8.2472,25.5966 16.6827,35.9034 l 6.3942,7.8128 1.665,-3.9598 c 0.9157,-2.1779 3.3792,-5.5867 5.4744,-7.5748 z"
         transform="translate(-206.44698,-224.10947)"
         id="path379" />
      <path
         style="fill:#000000;stroke-width:1.33333"
         d="m 1491.2512,1662.9925 c -8.0536,-1.1241 -10,-2.2252 -10,-5.657 0,-3.035 2.8271,-4.3262 14,-6.3942 15.6267,-2.8924 32.0502,-13.4213 38.7394,-24.8354 9.6325,-16.437 5.114,-40.9226 -10.914,-59.1414 -5.7716,-6.5605 -6.1367,-7.3785 -4.4631,-10 12.3069,-19.2777 16.2979,-30.5914 16.3125,-46.2437 0.013,-12.2412 -2.7022,-22.0727 -8.954,-32.4396 -2.5964,-4.3055 -4.7208,-8.5305 -4.7208,-9.3889 0,-0.8586 2.7479,-4.2359 6.1064,-7.5052 11.5914,-11.2836 16.7708,-24.0051 16.7708,-41.192 0,-22.2871 -11.2212,-39.4558 -34.2301,-52.373 -8.8868,-4.989 -10.9207,-9.0687 -5.8689,-11.7723 4.6393,-2.4829 14.646,-12.1564 17.8686,-17.2737 8.2708,-13.1334 10.2995,-32.3983 4.744,-45.0502 -3.9306,-8.9518 -12.4268,-16.5084 -23.1549,-20.5944 -6.7255,-2.5616 -8.3031,-3.7376 -8.6025,-6.4128 -0.3056,-2.731 1.4638,-4.6067 10.6374,-11.2759 13.5578,-9.8564 39.5832,-35.4519 48.7998,-47.9936 33.7133,-45.8759 54.5162,-106.0564 74.8989,-216.67307 12.6781,-68.80428 21.9584,-100.00664 41.0441,-138 21.2912,-42.38345 47.9406,-72.61578 93.6531,-106.24453 11.1576,-8.20815 56.0472,-38.27007 72.9683,-48.86579 34.0192,-21.30236 97.1656,-53.71525 205.6984,-105.58453 131.1631,-62.68463 195.7307,-97.03121 243.7256,-129.64921 59.9036,-40.71131 94.5025,-80.83051 106.8849,-123.93867 3.6735,-12.78852 5.8216,-15.2316 10.1988,-11.59888 6.1206,5.07963 -9.975,43.80593 -28.5717,68.74401 -27.3092,36.62164 -72.7453,71.99131 -144.9043,112.80063 -46.5341,26.31725 -79.0834,42.69413 -198.6666,99.95695 -51.8292,24.81857 -105.7173,51.16777 -107.0219,52.32962 -0.1954,0.17396 -1.9032,5.65646 -3.7952,12.18335 -4.2231,14.56808 -10.8075,31.50333 -19.2584,49.53372 -3.5231,7.51667 -5.991,13.66667 -5.4839,13.66667 1.8399,0 56.2851,-19.96012 85.5364,-31.35844 85.2348,-33.21331 173.9483,-73.02875 237.3563,-106.52766 108.7001,-57.42709 171.544,-105.37932 190.6956,-145.50774 4.4269,-9.27586 6.7531,-11.27688 9.988,-8.59207 3.1337,2.60076 2.3404,6.59481 -3.4027,17.13084 -7.3249,13.43829 -14.9142,22.97595 -30.2457,38.01052 -52.142,51.13225 -162.5833,114.03369 -315.7019,179.80665 -51.0297,21.92011 -138.7036,55.93927 -174.1395,67.5694 -11.2649,3.69719 -12.1865,5.52336 -11.0553,21.90735 0.7469,10.81679 -0.9219,39.48375 -2.9736,51.08355 l -0.7409,4.18908 15.1213,-3.21647 c 176.6722,-37.58005 367.3751,-115.8128 470.4547,-192.99625 6.9667,-5.21647 19.6833,-16.28811 28.2592,-24.60366 16.2827,-15.78824 20.0063,-17.67834 20.8273,-10.57182 0.9614,8.32066 -42.2192,44.84225 -83.4689,70.59717 -110.6501,69.08604 -267.5873,130.04428 -424.6568,164.94709 l -28.1568,6.2568 -1.1164,4.6045 c -3.5644,14.70269 -8.5438,30.42013 -13.8422,43.69362 -6.0158,15.07072 -6.0214,15.10031 -4.6009,24.2554 0.7821,5.04146 1.4221,12.20135 1.4221,15.91087 0,3.70953 0.4102,6.7446 0.9114,6.7446 3.0345,0 56.922,-10.64263 85.0887,-16.80476 97.4957,-21.32957 180.6844,-46.83908 256.066,-78.52173 91.6228,-38.50883 168.3714,-88.55815 193.2986,-126.05395 4.6822,-7.04304 6.9195,-9.28623 9.2618,-9.28623 4.3528,0 5.1101,3.31598 2.1034,9.20956 -11.5817,22.70198 -46.0566,52.34084 -95.9024,82.4495 -22.1536,13.3816 -65.7876,35.79636 -91.4941,47.00053 -92.5432,40.33484 -205.9321,73.50147 -332.2791,97.19273 l -26.3876,4.94792 -0.9692,9.93322 c -3.4088,34.93818 -17.2217,67.95421 -40.8329,97.59991 l -8.23,10.3333 11.0161,-0.01 c 58.7605,-0.029 152.9423,-16.9368 249.4635,-44.7845 62.2213,-17.95184 99.9276,-32.06772 142.8859,-53.49148 56.7873,-28.32045 97.4208,-58.40587 136.1089,-100.77633 10.9583,-12.0012 14.0405,-13.43927 15.9449,-7.43914 1.6812,5.29687 -29.0693,37.48678 -58.0538,60.77126 -36.4928,29.31617 -84.9635,56.73981 -138.2232,78.20365 -64.7383,26.08974 -173.5554,55.49794 -251.7769,68.04374 -36.133,5.7953 -54.8041,7.6105 -86.6509,8.424 l -30.6509,0.7829 -10.0158,9.0858 c -26.6276,24.1553 -72.6817,56.2668 -116.5668,81.2766 -9.2302,5.2603 -16.7822,9.8687 -16.7822,10.2409 0,0.3722 1.7241,3.7498 3.8313,7.5057 2.1073,3.7559 5.8253,11.779 8.2624,17.829 4.1959,10.4166 4.6467,10.9993 8.5019,10.9872 9.3212,-0.029 57.9432,-2.7832 82.7377,-4.6863 200.2271,-15.3689 388.0098,-75.5266 498.4136,-159.6708 12.7467,-9.7148 16.3079,-11.8299 18.0648,-10.729 5.2714,3.3031 3.396,6.5959 -9.3992,16.5049 -104.3561,80.8166 -280.2122,140.7397 -471.0792,160.5206 -26.1932,2.7146 -68.9744,5.7306 -97.4259,6.8684 l -22.7592,0.9101 1.865,9.4808 c 1.1822,6.0111 1.6324,14.1619 1.2298,22.2719 -0.6025,12.1355 -1.6741,16.1303 -8.461,31.5422 -0.4083,0.927 0.1716,1.6666 1.3064,1.6666 5.7613,0 13.9998,11.2172 17.0056,23.1542 l 1.5558,6.1792 6.1751,-0.01 c 21.6608,-0.03 94.7535,-5.0622 136.8417,-9.4207 131.1117,-13.5773 252.6083,-42.8816 321.0671,-77.4395 8.6828,-4.383 12.933,-4.1217 12.933,0.7954 0,4.0913 -0.7523,4.5999 -19.3334,13.0717 -80.4934,36.7 -201.5384,63.5002 -344.6667,76.3116 -30.306,2.7128 -84.804,6.0088 -99.4828,6.0168 l -12.1494,0.01 -0.7406,19 c -0.8154,20.9261 -3.6765,33.8245 -10.1677,45.8386 l -3.6948,6.8386 4.5296,3.6142 c 2.4912,1.9879 5.5053,5.6606 6.6979,8.1615 l 2.1684,4.5471 h 12.0864 c 42.7205,-0.013 133.916,-6.7282 191.4197,-14.1074 85.9768,-11.0332 144.1586,-25.9775 178.8386,-45.936 12.7441,-7.3344 15.0673,-7.8677 17.1686,-3.9411 2.0534,3.8367 -2.5512,7.6649 -19.8817,16.5297 -48.2559,24.6834 -139.4009,42.6062 -264.7922,52.0686 -38.2444,2.886 -74.7398,4.7151 -94.1476,4.7186 h -16.8141 l 0.6535,12.4925 c 0.4636,8.8635 0.013,15.3908 -1.5662,22.4689 -2.2238,9.9962 -9.0781,25.9502 -14.2986,33.2816 -1.5315,2.1508 -2.3704,4.3246 -1.8643,4.8307 1.6576,1.6577 97.8307,1.94 123.9997,0.364 98.0495,-5.9048 166.2645,-23.2063 212.5582,-53.9112 9.1813,-6.0896 11.6463,-7.1743 13.7476,-6.0497 6.6196,3.5426 -2.6057,12.1889 -27.6015,25.8689 -58.9806,32.2796 -169.4927,49.0507 -294.5797,44.7048 l -36.8476,-1.2801 -9.1926,7.1025 -9.1924,7.1025 5.2974,5.1728 c 5.896,5.7572 11.023,15.5534 13.1817,25.1859 1.9176,8.5567 1.8731,26.6745 -0.085,34.4499 -0.8751,3.4749 -1.3196,6.5894 -0.988,6.9212 0.3317,0.3316 8.6586,1.6018 18.5045,2.8226 21.7552,2.6976 77.1921,3.0876 99.9015,0.703 57.7078,-6.0599 108.2818,-19.6463 150.4119,-40.407 11.9597,-5.8936 22.6233,-10.3785 23.6968,-9.9666 2.8478,1.0928 3.776,4.5385 1.8481,6.8614 -2.5379,3.0579 -21.8181,13.2171 -37.7578,19.8952 -42.4894,17.8015 -95.3576,29.9431 -148.8657,34.1882 -23.3655,1.8537 -72.8109,0.7541 -94.6667,-2.1052 -8.4333,-1.1034 -16.0128,-2.0115 -16.8433,-2.0182 -0.8305,0 -4.1305,4.0106 -7.3333,8.9268 -19.6714,30.1958 -54.1683,50.2604 -100.49,58.4486 -13.0411,2.3052 -55.7251,3.6897 -66.6667,2.1624 z"
         transform="translate(-206.44698,-224.10947)"
         id="path381" />
      <path
         style="fill:#ffcc00;stroke-width:1.33333"
         d="m 1687.0491,908.53559 c 28.9449,-12.18875 61.5563,-30.1421 87.3936,-48.11226 54.424,-37.85253 100.5756,-96.96197 126.8179,-162.42397 4.0778,-10.17231 10.8213,-30.2102 10.3057,-30.62331 -0.6279,-0.50317 -44.7527,23.82646 -62.3151,34.35942 -25.1382,15.0766 -73.6286,47.88402 -92.4669,62.56088 -46.8037,36.46461 -75.8852,77.63552 -95.5129,135.21852 -3.6778,10.78958 -6.6868,20.13213 -6.6868,20.76122 0,1.29446 10.6946,-2.57318 32.4645,-11.7405 z"
         transform="translate(-206.44698,-224.10947)"
         id="path395" />
      <path
         style="fill:#ffcc00;stroke-width:1.33333"
         d="m 1665.547,1044.6979 c 78.5296,-30.5765 136.5333,-73.84791 169.6872,-126.58843 24.7802,-39.41996 39.3504,-88.97671 39.3504,-133.84079 v -13.91076 l -6.8826,9.87577 c -35.4729,50.90022 -79.0608,88.03951 -141.4589,120.53079 -19.9001,10.36221 -49.9524,23.51024 -65.4103,28.6174 -6.9616,2.30007 -9.3764,3.76773 -10.3313,6.27933 -0.6853,1.80272 -3.3125,13.89107 -5.838,26.86298 -12.9516,66.52311 -18.036,91.92181 -18.7996,93.91171 -0.7235,1.8856 0.7231,1.7152 10.2727,-1.2098 6.113,-1.8725 19.3477,-6.6102 29.4104,-10.5282 z"
         transform="translate(-206.44698,-224.10947)"
         id="path393" />
      <path
         style="fill:#ffcc00;stroke-width:1.33333"
         d="m 1606.3075,1183.5162 c 93.2061,-46.9464 169.8564,-99.2723 202.6637,-138.3499 27.9423,-33.2827 40.7995,-65.89159 42.5207,-107.84269 1.0181,-24.81274 0.027,-27.16324 -6.6983,-15.87464 -12.8173,21.51656 -37.6116,49.07343 -61.5424,68.39951 -36.7452,29.67482 -92.0082,58.23482 -144.8768,74.87262 l -15.5436,4.8915 -2.8924,10.9151 c -12.1296,45.7736 -27.5008,85.0737 -44.0336,112.5818 -2.3138,3.85 -3.8322,7 -3.3741,7 0.4583,0 15.6577,-7.467 33.7768,-16.5933 z"
         transform="translate(-206.44698,-224.10947)"
         id="path391" />
      <path
         style="fill:#ffcc00;stroke-width:1.33333"
         d="m 1567.2255,1319.917 c 40.9429,-8.4698 72.0807,-22.1285 88.2743,-38.7217 17.4553,-17.8862 20.5006,-41.0382 9.7577,-74.1821 -3.5696,-11.0126 -11.7397,-29.1941 -14.8712,-33.0934 -0.874,-1.0882 -5.4923,0.7825 -16.1791,6.5534 -17.511,9.4561 -70.9136,35.6363 -72.691,35.6363 -0.6715,0 -5.5646,4.9894 -10.8736,11.0876 -8.3207,9.5575 -15.3015,16.1337 -36.4538,34.3412 l -3.9834,3.4289 5.9329,3.4769 c 7.7533,4.5437 16.5217,14.1587 20.0988,22.0391 2.3071,5.0823 2.8717,8.9499 2.9353,20.104 l 0.079,13.8111 7.3076,-0.8589 c 4.0192,-0.4724 13.3192,-2.1025 20.6667,-3.6224 z"
         transform="translate(-206.44698,-224.10947)"
         id="path389" />
      <path
         style="fill:#ffcc00;stroke-width:1.33333"
         d="m 1575.2512,1434.6388 c 37.0135,-4.5128 69.4312,-20.1631 88.5188,-42.734 15.3664,-18.1707 19.1859,-30.2332 19.3556,-61.1287 0.088,-16.0621 -0.3997,-22.328 -2.19,-28.1232 -5.2414,-16.9673 -11.1774,-18.6155 -26.1614,-7.2636 -22.8795,17.3336 -65.1764,32.2377 -108.2812,38.1549 l -11.4248,1.5684 -3.1496,5.9371 c -1.7323,3.2653 -5.9299,8.8984 -9.3282,12.5179 l -6.1784,6.5809 6.3828,4.0959 c 9.0616,5.8148 20.2328,18.3895 25.0243,28.168 5.2651,10.7453 7.2767,21.8131 6.1848,34.0304 l -0.8639,9.6667 h 5.0556 c 2.7806,0 10.4556,-0.6622 17.0556,-1.467 z"
         transform="translate(-206.44698,-224.10947)"
         id="path387" />
      <path
         style="fill:#ffcc00;stroke-width:1.33333"
         d="m 1581.7024,1523.4431 c 21.7511,-2.8512 39.3911,-7.8004 55.5284,-15.5794 11.9814,-5.7754 15.5932,-8.3337 24.8354,-17.5897 8.6297,-8.6428 11.937,-13.1557 16.3689,-22.3357 5.9575,-12.3398 9.4224,-25.7268 9.4596,-36.5487 0.049,-14.4493 -7.4649,-32.6135 -13.4925,-32.6135 -1.6039,0 -6.5706,3.5168 -11.5658,8.1895 -24.7361,23.1395 -57.6957,36.0063 -98.144,38.3135 l -14.5588,0.8304 -3.2662,6 c -1.7966,3.3 -5.5783,8.7877 -8.404,12.1949 l -5.1376,6.1951 4.0113,8.0273 c 5.4829,10.9724 8.3403,25.2048 7.4783,37.2493 l -0.6919,9.6667 h 11.1623 c 6.1392,0 18.0266,-0.8999 26.4166,-1.9997 z"
         transform="translate(-206.44698,-224.10947)"
         id="path385" />
      <path
         style="fill:#ffcc00;stroke-width:1.33333"
         d="m 1550.5846,1651.9349 c 48.782,-6.5182 85.6605,-28.733 104.5376,-62.971 11.3557,-20.5964 9.3977,-50.5755 -4.2567,-65.1711 -4.9559,-5.2976 -10.0021,-5.7012 -20.9476,-1.6757 -21.5124,7.9117 -48.8645,12.659 -72.9367,12.659 H 1541.72 l -6.1033,12.2688 -6.1035,12.269 4.4852,5.4734 c 2.4668,3.0104 6.3046,9.3616 8.5284,14.1138 11.1564,23.8406 7.8256,46.7881 -9.1401,62.9706 -4.1504,3.9588 -9.4788,8.1974 -11.8409,9.4187 -2.362,1.2215 -4.2946,2.5368 -4.2946,2.9228 0,0.8736 19.9495,-0.49 33.3334,-2.2783 z"
         transform="translate(-206.44698,-224.10947)"
         id="path383" />
    </g>
    <g
       id="layer10"
       inkscape:label="Mane"
       style="fill:#ff6600">
      <path
         style="fill:#ff6600;stroke-width:1.33333"
         d="m 477.46492,959.73719 c 22.51182,-22.36594 55.12025,-46.07554 77.46453,-56.32447 11.01252,-5.05125 11.69084,-5.61264 14.27519,-11.81439 1.49229,-3.58113 2.71327,-8.02402 2.71327,-9.87312 0,-4.41294 -8.00278,-11.9955 -19.36871,-18.35169 l -8.7625,-4.90027 -9.84614,4.293 c -5.41539,2.36115 -17.23587,8.49843 -26.26774,13.63838 -33.70068,19.17876 -56.23717,36.23754 -78.99932,59.79778 l -14.51157,15.02039 10.86167,5.01544 c 5.97392,2.75848 13.46164,6.88259 16.6394,9.16468 4.24968,3.05188 8.04476,4.44269 14.34965,5.25883 4.71456,0.61026 8.66808,1.18565 8.7856,1.27865 0.11747,0.0929 5.81752,-5.39847 12.66667,-12.20321 z"
         transform="translate(-206.44698,-224.10947)"
         id="path403" />
      <path
         style="fill:#ff6600;stroke-width:1.33333"
         d="m 1375.1494,1444.3373 c 17.0785,-25.8368 35.684,-58.975 34.1658,-60.8529 -1.8136,-2.2433 -15.0796,-42.5483 -28.0701,-85.2834 -13.9852,-46.0068 -19.0845,-60.2388 -28.2168,-78.7511 -14.5297,-29.4539 -33.414,-46.5524 -56.7771,-51.408 l -7,-1.4548 v -5.8451 c 0,-5.7127 0.1134,-5.8645 5,-6.7037 15.615,-2.6818 32.345,-8.3263 37.5223,-12.6598 1.7539,-1.468 2.9539,-2.829 2.6667,-3.0245 -0.2874,-0.1955 -3.2223,-2.0852 -6.5223,-4.1993 -8.6811,-5.5615 -19.4784,-16.182 -38.0009,-37.3786 -25.4604,-29.136 -32.3107,-34.9269 -53.6082,-45.3176 l -14.1442,-6.9007 11.8766,-2.294 c 17.8011,-3.4382 25.85,-5.9667 26.0767,-8.1916 0.11,-1.0794 0.26,-2.6332 0.3333,-3.4527 0.073,-0.8194 -2.7006,-2.6031 -6.1644,-3.9637 -14.3376,-5.6319 -30.8828,-17.2922 -52.8025,-37.213 -23.5285,-21.38284 -34.9544,-30.4332 -44.8567,-35.53072 l -9.4997,-4.89025 0.7283,-5.43858 0.7284,-5.43858 7.3333,-1.02336 c 7.9229,-1.10562 24,-6.2802 24,-7.72463 0,-1.20411 -64.1906,-34.16351 -94.6667,-48.60769 -61.7667,-29.27447 -105.8809,-45.6905 -145.78325,-54.24979 -10.34815,-2.21973 -18.27607,-2.92599 -33.55004,-2.98877 -19.06534,-0.0784 -20.42782,0.0957 -29.15442,3.72502 l -9.15441,3.80724 -4.06512,-4.06512 -4.06511,-4.06512 8.21952,-11.31312 c 4.52075,-6.22221 8.21954,-12.03936 8.21954,-12.92698 0,-2.99068 -33.26878,0.73656 -54.66667,6.12453 -10.59965,2.66899 -37.65856,11.31559 -45.50328,14.54045 -1.76764,0.72666 -2.33633,-0.29701 -3.06731,-5.52124 -1.65594,-11.835 -2.27621,-14.40106 -4.06942,-16.83569 -1.70292,-2.31203 -3.41499,-2.07907 -37.57211,5.11231 -19.68333,4.14408 -48.60556,10.78416 -64.27161,14.75573 -15.66606,3.97156 -28.68544,7.22103 -28.93196,7.22103 -0.24654,0 0.36618,1.95 1.3616,4.33333 0.9954,2.38333 2.78373,9.04977 3.97406,14.81431 2.70724,13.11058 4.79059,17.17128 10.67591,20.80861 4.60784,2.8478 4.82305,2.85675 19.03233,0.79181 62.02376,-9.01349 127.89642,-10.46068 183.70512,-4.03589 56.07835,6.45581 104.84593,21.25781 157.86633,47.91583 120.4116,60.54149 212.7404,174.84543 281.0895,347.99173 19.9544,50.5495 41.0032,117.672 56.102,178.9037 4.1848,16.9714 8.0783,30.5739 8.6522,30.228 0.5737,-0.346 7.2584,-10.0316 14.8548,-21.5236 z"
         transform="translate(-206.44698,-224.10947)"
         id="path401" />
    </g>
    <g
       id="layer4"
       inkscape:label="Body"
       style="fill:#aa4400">
      <path
         style="fill:#aa4400;stroke-width:1.33333"
         d="m 1594.4844,3225.5565 c 8.6586,-27.8696 22.2896,-49.108 36.1002,-56.2469 9.0125,-4.6587 20.8718,-4.3373 31.2398,0.8467 12.831,6.4153 27.8635,22.4209 41.015,43.6694 l 4.7758,7.7164 3.9771,-5.0497 c 10.0403,-12.7476 13.86,-24.56 18.4479,-57.0496 5.6924,-40.3109 4.0966,-36.3965 28.9485,-71.0105 11.974,-16.6775 49.5787,-69.6228 83.5657,-117.6562 77.9232,-110.1272 101.0882,-141.977 117.753,-161.9001 21.608,-25.8328 31.2571,-42.598 35.0456,-60.892 2.7879,-13.4615 7.7167,-29.3537 15.2613,-49.2079 19.3716,-50.977 45.8398,-102.5834 112.4348,-219.2209 12.9446,-22.6716 23.5355,-41.7216 23.5355,-42.3333 0,-0.6119 -0.4772,-1.1124 -1.0605,-1.1124 -0.5832,0 -11.8079,-6.0514 -24.9435,-13.4472 -37.3347,-21.0212 -75.3897,-46.801 -101.8627,-69.0052 -24.9761,-20.9488 -35.7901,-43.0856 -46.3537,-94.8882 -2.6909,-13.196 -5.3721,-23.9928 -5.9581,-23.9928 -2.2992,0 -27.8591,21.831 -40.4631,34.5598 -7.3196,7.3921 -13.8468,13.4402 -14.5048,13.4402 -3.0507,0 -28.2635,-11.7612 -40.8536,-19.0574 -25.4846,-14.7686 -28.2051,-16.1014 -29.2887,-14.348 -1.3876,2.245 -8.8895,41.5062 -11.4784,60.0721 -3.3219,23.8212 -3.9208,89.1448 -1.2836,140 1.1979,23.1 2.5309,65.1 2.9624,93.3333 l 0.7845,51.3334 -14.9766,44 c -56.1124,164.8537 -104.0706,288.3428 -139.5502,359.3333 -21.9433,43.906 -18.6414,40.1941 -51.8361,58.2728 -67.4641,36.7429 -97.0601,57.1303 -131,90.2401 -15.8517,15.4642 -18.0408,18.1538 -14.7751,18.1538 2.4956,0 35.2218,18.1994 49.7751,27.6805 16.0836,10.478 34.894,24.7729 49.3333,37.4907 5.8667,5.1672 10.7702,9.4176 10.8964,9.4452 0.1267,0.028 2.078,-5.8986 4.3368,-13.1694 z"
         transform="translate(-206.44698,-224.10947)"
         id="path349" />
      <path
         style="fill:#aa4400;stroke-width:1.33333"
         d="m 2186.8721,3074.2867 c 25.4893,-16.5134 47.3336,-26.0452 67.9554,-29.6531 15.8704,-2.7767 37.1871,-1.8539 63.7571,2.7597 10.6333,1.8466 19.4028,3.363 19.4876,3.37 0.085,0.013 -0.9875,-4.0372 -2.3829,-8.9872 -11.1855,-39.677 3.9342,-70.0101 39.0194,-78.2802 10.7536,-2.5348 20.6459,-2.5498 32.4506,-0.049 5.0828,1.0768 9.3944,1.8048 9.5813,1.6179 0.1869,-0.1869 -2.3917,-4.5284 -5.7304,-9.6476 -3.3387,-5.1192 -7.8736,-13.0935 -10.0776,-17.7207 -3.6815,-7.729 -3.9591,-9.301 -3.4129,-19.3333 0.3845,-7.0629 1.5708,-13.1069 3.3582,-17.1109 4.0948,-9.172 28.1584,-47.2394 58.4571,-92.476 14.7352,-22 40.2551,-60.1 56.7107,-84.6667 44.8156,-66.9051 66.094,-101.8719 85.6001,-140.6667 11.5256,-22.9226 13.4504,-30.3698 10.3091,-39.888 -0.881,-2.6693 -8.1834,-14.85 -16.2274,-27.0678 -8.0441,-12.218 -15.0852,-23.0358 -15.6468,-24.0394 -0.5617,-1.0036 -6.6781,-3.4966 -13.592,-5.5402 -42.0493,-12.4288 -79.4673,-33.8907 -103.6762,-59.4658 -17.8024,-18.8069 -22.8478,-33.3482 -20.1094,-57.9573 2.559,-22.9956 10.4103,-46.5701 25.7695,-77.3748 13.1296,-26.3328 25.0752,-45.8751 61.9607,-101.3639 17.3165,-26.0502 34.0825,-51.9656 37.2577,-57.5897 14.7143,-26.0633 22.0924,-66.4525 21.3816,-117.0464 -0.2404,-17.1167 0.3019,-33.3139 1.4508,-43.3333 2.6737,-23.3151 2.4407,-64.4218 -0.4725,-83.3334 -10.7036,-69.4842 -43.0236,-132.9913 -96.695,-190 -80.6446,-85.6593 -195.2494,-142.5414 -317.438,-157.5548 -26.7693,-3.2892 -88.4137,-3.2729 -116.6666,0.031 -21.0507,2.4615 -60.2502,8.8485 -75.1739,12.2488 l -8.8261,2.0109 -3.8206,10.2988 c -2.1013,5.6643 -5.4729,14.9722 -7.4924,20.684 -6.1029,17.261 -17.8102,28.62 -42.288,41.0304 -7.4804,3.7927 -14.5667,7.963 -15.7472,9.2675 -1.1805,1.3044 -4.9601,2.7872 -8.3991,3.2951 -3.439,0.508 -14.0528,3.2805 -23.5861,6.1613 -52.2241,15.7809 -112.3145,27.2516 -247.3333,47.2133 -134.632,19.9046 -181.1967,30.1694 -199.099,43.8902 l -5.5677,4.2673 v 11.2448 11.2449 l -4.7093,0.3966 c -4.2975,0.3617 -4.8551,0 -6.3762,-4.2132 -0.9168,-2.5352 -4.9825,-8.3255 -9.0349,-12.8671 -10.4031,-11.6589 -16.184,-20.8393 -19.9603,-31.698 -5.0776,-14.6008 -5.3654,-25.3972 -1.3685,-51.3308 4.4223,-28.6931 4.496,-40.6501 0.3061,-49.6479 -4.0929,-8.7892 -14.0958,-17.6265 -27.0936,-23.9364 -17.6137,-8.5509 -33.4761,-22.7469 -41.6282,-37.2552 -4.513,-8.0317 -9.691,-23.4905 -13.4367,-40.1146 -1.4871,-6.6 -3.0288,-13.4091 -3.426,-15.1312 -0.7179,-3.1116 -0.6771,-3.1054 6.4983,1 3.9713,2.2721 9.1174,4.1312 11.436,4.1312 6.7597,0 16.8566,-6.0543 27.2936,-16.3658 l 9.7061,-9.5894 -10.9899,-43.3558 c -26.243,-103.5302 -54.2381,-182.0672 -91.3489,-256.2686 -29.324,-58.6322 -61.2476,-107.117 -98.1623,-149.0867 -75.4639,-85.7976 -170.3806,-137.85896 -281.70529,-154.51396 -30.81312,-4.60987 -51.42016,-6.00516 -88,-5.95845 -38.37031,0.0489 -57.51638,1.34945 -97.04382,6.59152 l -25.71048,3.40969 -5.87142,-2.84231 c -11.77503,-5.7002 -16.5123,-13.69493 -20.69956,-34.93314 -1.96207,-9.95176 -7.34164,-17.70252 -16.61194,-23.9341 -8.37176,-5.62758 -11.95513,-6.85665 -29.39612,-10.08265 -9.69733,-1.79368 -18.0125,-2.11384 -43.33333,-1.66844 -59.15076,1.04047 -69.83466,0.25587 -86.30622,-6.33815 -9.59597,-3.84153 -9.49416,-3.88565 -15.04136,6.51927 l -2.62085,4.91593 4.8728,4.01658 c 12.90488,10.63729 27.05712,15.7118 61.90567,22.19725 29.86368,5.55776 42.04952,9.27099 55.47107,16.90297 15.98233,9.08815 24.35833,18.9308 24.40229,28.67516 0.0215,4.77115 -8.05425,25.70347 -9.92623,25.72867 -0.7831,0.0107 -7.42384,2.91716 -14.75717,6.45915 -25.08618,12.1166 -56.04211,35.23328 -77.4093,57.80624 l -10.65709,11.25848 -13.85101,32.56189 c -7.61806,17.9089 -37.21134,87.1617 -65.76286,153.8951 -87.10078,203.5802 -84.52913,197.2124 -85.88348,212.6666 -1.01942,11.6326 0.75992,15.3547 14.3847,30.0912 14.2134,15.3732 17.61721,21.772 20.33376,38.2256 3.9184,23.7328 10.6062,35.5112 29.63502,52.1924 8.08931,7.0914 12.87543,10.2602 17.10495,11.3252 9.56644,2.4088 18.82619,-0.4205 27.21907,-8.317 9.43336,-8.8754 10.751,-16.1044 6.9497,-38.1287 -2.14396,-12.4217 -2.48404,-17.3509 -1.45961,-21.1553 0.83524,-3.1019 6.66917,-11.4427 15.572,-22.2635 7.83001,-9.5168 29.84644,-37.4032 48.92539,-61.9699 36.82052,-47.4113 47.76837,-61.0989 48.98493,-61.2437 0.83623,-0.1 6.79673,30.5614 9.96181,51.2437 3.25067,21.2416 3.93532,53.5458 1.47407,69.5508 -3.74199,24.3335 -7.30393,31.412 -28.65059,56.9366 -11.5272,13.7833 -17.53813,23.2774 -17.53813,27.7012 0,5.173 12.77307,12.4634 19.59432,11.1838 6.82297,-1.28 25.05835,-11.0681 37.83406,-20.308 28.98166,-20.9605 43.67074,-37.7665 49.34906,-56.4612 3.3665,-11.0834 3.14288,-27.3901 -0.77638,-56.6168 l -2.505,-18.6803 11.6803,-14.6531 c 6.42416,-8.0591 18.22656,-24.553 26.22755,-36.653 8.00097,-12.1 15.30823,-23.0653 16.23833,-24.3674 0.99715,-1.396 6.61532,-3.6777 13.6911,-5.5603 36.70701,-9.7666 72.13828,-26.4223 94.34333,-44.3495 5.71529,-4.6142 10.5714,-8.3894 10.79135,-8.3894 1.26306,0 13.95276,21.9149 19.46129,33.6093 13.76687,29.2267 18.65444,52.2119 19.64595,92.3907 1.10738,44.8742 -2.4849,70.3858 -21.59947,153.3945 -5.48703,23.8284 -11.30551,50.5381 -12.92995,59.3549 l -2.95353,16.0304 -7.01208,5.2943 c -15.55864,11.7468 -37.90212,44.5228 -51.53101,75.5916 -4.86167,11.0828 -27.47536,99.7325 -34.77755,136.3343 -13.48472,67.5912 -13.88057,127.6196 -1.29252,196 7.53715,40.943 23.93896,75.337 53.41052,112 10.00461,12.4458 38.08492,41.1642 50.03071,51.1677 l 7.58705,6.3535 6.7208,-5.3126 c 9.99775,-7.9026 28.49616,-18.0856 44.06809,-24.2581 14.22444,-5.6385 30.09538,-10.3425 31.18206,-9.2421 0.33942,0.3437 1.03622,2.8685 1.54845,5.6108 0.68609,3.673 0.45409,5.1254 -0.88108,5.5157 -36.4158,10.6443 -59.46004,22.5159 -78.53152,40.4569 -28.34696,26.6668 -40.00619,55.6808 -43.96955,109.418 l -1.48113,20.0822 -20.62821,36.4373 c -47.28611,83.5255 -61.59948,118.6471 -67.74366,166.2263 -2.80328,21.7081 -2.70168,25.4672 1.05774,39.1314 10.65,38.7092 30.50702,74.6443 66.73346,120.7668 l 10.75046,13.6872 14,4.533 c 86.63161,28.0498 246.59109,62.6486 369.99999,80.0298 56.6802,7.983 108.8588,12.3291 128.6667,10.717 21.4338,-1.7446 54.6348,-11.898 78.6666,-24.0579 16.4199,-8.3083 52,-31.6593 52,-34.1275 0,-0.5729 -1.35,-1.7542 -3,-2.6252 -9.3001,-4.9093 -57.9893,-40.567 -89.3169,-65.4114 l -12.9835,-10.2968 -5.9744,2.6428 c -10.1893,4.5072 -25.9325,7.8885 -36.7287,7.8885 -13.2527,0 -20.2715,-3.4204 -25.9965,-12.6688 -3.699,-5.9756 -3.994,-7.3724 -3.9211,-18.5632 0.063,-9.7179 0.8129,-14.1699 3.8055,-22.6036 4.305,-12.1325 4.4796,-11.8315 -8.2587,-14.2351 -12.0991,-2.2829 -21.5133,-0.902 -43.9587,6.4482 l -19.5691,6.4082 -4.9731,7.1724 c -2.7353,3.9448 -6.675,8.8742 -8.755,10.9542 l -3.7817,3.7817 -52.6274,-6.6735 c -95.9047,-12.1613 -129.10295,-19.5252 -159.96066,-35.4817 -27.55528,-14.2489 -42.94067,-31.1689 -51.41044,-56.5388 -3.24941,-9.7331 -3.27383,-28.4587 -0.0513,-39.3333 6.54304,-22.0799 19.51585,-39.8976 60.2459,-82.7462 16.63144,-17.4965 33.39297,-36.0362 37.24782,-41.1994 19.89618,-26.6492 48.07438,-85.014 98.10278,-203.1975 l 21.085,-49.8099 -16.507,-33.8568 -16.507,-33.8569 h -10.4712 c -28.7243,0 -62.2055,-7.5831 -86.52694,-19.5975 -15.23384,-7.5252 -26.68039,-16.0637 -39.19255,-29.2357 l -9.79387,-10.3104 4.48348,-3.7431 4.48348,-3.7429 9.40591,9.7829 c 27.52872,28.6324 63.24589,42.5415 114.73919,44.682 l 20,0.8314 4.5001,8.5106 c 2.475,4.6808 11.2276,22.392 19.4503,39.3582 l 14.9502,30.8474 -5.6313,13.3086 c -3.0972,7.3197 -11.4568,27.1085 -18.5768,43.9752 -17.0862,40.475 -37.2592,86.6014 -47.8916,109.5057 -4.7207,10.1695 -8.3209,18.752 -8.0005,19.0724 0.63,0.63 5.6142,0.9716 87.8663,6.0213 292.5727,17.9619 437.2583,11.1538 597.9859,-28.138 66.1337,-16.1672 158.8506,-45.8828 248.5098,-79.6469 l 26.1491,-9.8473 1.3443,5.183 c 0.7393,2.8507 1.9346,7.4614 2.6561,10.2459 0.7216,2.7847 4.5923,21.2347 8.6015,41 9.0853,44.79 12.3661,56.3735 20.8829,73.7301 8.3721,17.0622 16.6443,25.7958 43.4219,45.8443 40.827,30.5673 61.0477,42.7951 145.1152,87.7529 36.1089,19.3104 53.4768,29.7414 71.8658,43.1616 42.8559,31.2762 72.5795,67.0642 99.7611,120.115 9.2516,18.0565 9.5612,18.9717 9.4713,28 -0.2837,28.5096 -27.0861,81.0822 -104.3422,204.6666 -16.3719,26.1896 -33.6728,55.7618 -40.1728,68.6667 -21.3566,42.4011 -39.0924,97.9423 -48.538,152 -2.8052,16.054 -3.0834,18 -2.5728,18 0.2397,0 5.4065,-3.2203 11.4817,-7.1561 z"
         transform="translate(-206.44698,-224.10947)"
         id="path353" />
      <path
         style="fill:#aa4400;stroke-width:1.33333"
         d="m 637.84749,2830.4428 c -4.07572,-19.4663 -15.22442,-105.5343 -15.27932,-117.9564 -0.0148,-3.3567 -1.32794,-4.3848 -13.77845,-10.788 -7.56913,-3.8928 -16.80771,-9.742 -20.53019,-12.9984 -7.33508,-6.4165 -13.67496,-17.4031 -13.67496,-23.6976 0,-13.4243 10.01698,-25.7419 28.4535,-34.9885 12.89918,-6.4695 13.32708,-7.1114 9.18766,-13.7807 -8.3935,-13.5235 -17.7969,-20.8597 -42.76896,-33.3672 l -13.79448,-6.9091 -9.53885,1.5287 c -17.78328,2.8501 -13.64703,6.4417 -52.25831,-45.3761 -18.85191,-25.3 -39.23605,-53.5 -45.29809,-62.6667 -35.32627,-53.4184 -47.98054,-91.3287 -41.40558,-124.0449 6.48298,-32.2587 27.36374,-53.2834 60.79798,-61.2172 17.81765,-4.2282 33.64612,-5.3566 75.48386,-5.3815 21.3723,-0.013 45.04039,-0.6575 52.59577,-1.4328 18.48729,-1.8971 47.44577,-9.4675 88.11806,-23.0357 51.99728,-17.3463 68.0027,-23.525 68.7957,-26.5574 1.19086,-4.554 10.80289,-23.6105 15.1701,-30.0758 2.32367,-3.4402 6.78442,-9.2992 9.91279,-13.0203 l 5.68793,-6.7657 -16.2362,-15.1823 c -40.41538,-37.7923 -66.07937,-72.0096 -82.34557,-109.7901 l -4.52233,-10.5038 -16.0175,0.8815 c -75.12074,4.1339 -126.84608,18.8095 -159.75132,45.3248 l -8.20359,6.6105 -42.69796,11.1159 c -70.7537,18.4199 -91.90185,25.3487 -121.36461,39.7623 -29.24036,14.3048 -59.85303,36.4868 -68.06019,49.3166 -20.59621,32.1971 -35.13877,77.4487 -43.27669,134.6626 l -2.84473,20 9.75746,19.3141 c 64.61622,127.9027 204.20222,338.4677 268.86931,405.5885 14.78008,15.341 28.40419,25.1456 50.22151,36.1422 23.86033,12.0262 40.36709,17.6508 69.25185,23.5969 25.4883,5.2469 23.43195,5.662 21.3444,-4.3084 z"
         transform="translate(-206.44698,-224.10947)"
         id="path369" />
      <path
         style="fill:#aa4400;stroke-width:1.33333"
         d="m 1946.4279,2234.7761 c 6.1284,-4.7666 12.6954,-9.9429 14.5934,-11.5029 l 3.4509,-2.8363 -1.8019,-9.1637 c -0.9909,-5.04 -2.0669,-9.8797 -2.3908,-10.7549 -0.4146,-1.1204 -3.81,-0.3847 -11.4753,2.4865 -11.1063,4.1601 -93.4043,33.6512 -96.7018,34.6525 -2.2898,0.6954 32.99,21.4171 46.3679,27.2343 l 10.0063,4.3511 13.4045,-12.8999 c 7.3724,-7.0951 18.4186,-16.8 24.5468,-21.5667 z"
         transform="translate(-206.44698,-224.10947)"
         id="path377" />
      <path
         style="fill:#aa4400;stroke-width:1.33333"
         d="m 485.60081,875.60797 c 7.5646,-4.67581 16.94021,-10.11616 20.83471,-12.08964 3.89448,-1.97348 6.83652,-3.8325 6.53785,-4.13117 -0.29865,-0.29867 -17.90832,-1.47459 -39.13257,-2.61317 -21.22426,-1.13859 -43.03266,-2.66079 -48.4631,-3.3827 -5.43044,-0.72189 -10.1779,-1.00816 -10.54992,-0.63614 -0.37201,0.37201 -0.0168,2.12404 0.78939,3.8934 1.75759,3.8575 10.91704,10.36454 21.24492,15.09281 8.76648,4.01343 30.97521,12.20447 33.35369,12.30153 0.89718,0.0367 7.82043,-3.75909 15.38503,-8.43492 z"
         transform="translate(-206.44698,-224.10947)"
         id="path405" />
    </g>
    <g
       id="layer5"
       inkscape:label="Lines">
      <path
         style="fill:#000000;stroke-width:1.33333"
         d="m 373.97861,1413.5603 c -3.01007,-5.821 -2.6084,-7.1264 3.21608,-10.4522 16.70097,-9.5364 17.31668,-30.5642 0.97259,-33.2165 -6.03184,-0.9788 -14.70455,2.0851 -21.74952,7.6837 l -5.00511,3.9776 -4.08071,-4.1458 -4.0807,-4.1459 4.66666,-4.0589 c 6.34724,-5.5205 17.08742,-10.3648 25.07776,-11.3111 9.98735,-1.1829 20.05288,3.789 25.09746,12.3969 8.85318,15.1068 1.78753,33.8575 -16.66659,44.2294 l -5.3872,3.0277 z"
         transform="translate(-206.44698,-224.10947)"
         id="path357" />
      <path
         style="fill:#000000;stroke-width:1.33333"
         d="m 2503.2513,2607.3091 c -1.4667,-1.1268 -3.4476,-2.499 -4.402,-3.049 -1.3008,-0.7497 0,-3.9452 5.1876,-12.7624 8.7938,-14.9409 15.296,-30.8032 17.359,-42.3474 4.8512,-27.1454 -12.7045,-43.0083 -50.854,-45.9502 l -10.6517,-0.8213 -28.3195,-28.8136 c -29.2072,-29.7167 -44.4888,-47.5532 -58.156,-67.8793 -7.8065,-11.6099 -21.4968,-34.7108 -21.4968,-36.2735 0,-0.4449 2.2426,-1.8784 4.9834,-3.1855 4.082,-1.9465 5.1696,-2.0514 6.0136,-0.5802 23.9772,41.7981 41.113,63.8481 80.2988,103.3266 l 21.3709,21.5306 9.3333,0.9689 c 54.1111,5.6171 72.1362,34.8619 51.7552,83.97 -3.594,8.6595 -17.7953,34.0268 -19.0106,33.9576 -0.4095,-0.023 -1.9446,-0.9644 -3.4112,-2.0913 z"
         transform="translate(-206.44698,-224.10947)"
         id="path355" />
    </g>
    <g
       id="layer9"
       inkscape:label="Teeth">
      <path
         style="fill:#ffeeaa;stroke-width:1.33333"
         d="m 523.60018,1450.4375 c 6.2255,-10.2722 9.66852,-25.23 10.51036,-45.6614 l 0.71419,-17.3333 -8.91961,16 c -8.68803,15.5845 -23.80658,38.9439 -33.40143,51.6076 l -4.75377,6.2743 8.41733,6.2061 8.41732,6.2063 7.37339,-8.128 c 4.05536,-4.4706 9.29436,-11.2978 11.64222,-15.1716 z"
         transform="translate(-206.44698,-224.10947)"
         id="path399" />
    </g>
    <g
       id="layer6"
       inkscape:label="Eye">
      <path
         style="fill:#000000;stroke-width:1.33333"
         d="m 486.58457,1132.2572 c -10.43369,-3.3798 -22.85065,-9.9184 -36.33333,-19.1327 -6.41667,-4.3852 -11.66667,-8.1733 -11.66667,-8.4179 0,-0.2446 1.27921,-2.6128 2.84268,-5.2627 2.07309,-3.5136 3.42672,-4.5636 5,-3.8784 15.13477,6.5916 30.37888,1.2086 37.74864,-13.3298 1.52216,-3.0028 4.33681,-7.2637 6.25479,-9.4687 1.91797,-2.205 6.6957,-9.4821 10.61718,-16.1714 9.13668,-15.5855 16.7442,-24.2212 25.71358,-29.189 6.20856,-3.4387 8.50365,-3.9591 17.32738,-3.9289 9.22039,0.032 11.2141,0.5536 21.33334,5.5855 17.39785,8.6511 17.06777,8.0939 8.64512,14.592 -9.69512,7.4799 -14.12539,14.3341 -26.15314,40.4624 -13.97601,30.3607 -19.63444,38.5727 -32.51564,47.1894 -4.22141,2.8239 -6.7015,3.4558 -13.33333,3.3974 -4.481,-0.039 -11.44727,-1.1406 -15.4806,-2.4472 z"
         transform="translate(-206.44698,-224.10947)"
         id="path359" />
      <path
         style="fill:#00ffff;stroke-width:1.33333"
         d="m 545.11945,1061.7761 c 1.68644,-3.4833 5.67703,-10.0002 8.86795,-14.482 l 5.80168,-8.1486 -3.60225,-1.6454 c -6.89751,-3.1505 -16.5971,-3.2937 -22.34233,-0.33 -6.71278,3.4629 -20.59326,18.3894 -20.59326,22.1452 0,0.4368 2.55,0.7975 5.66666,0.8016 7.41728,0.01 14.69507,2.0938 18.55998,5.3148 1.70868,1.424 3.43713,2.609 3.841,2.6334 0.40388,0.024 2.11413,-2.8056 3.80057,-6.289 z"
         transform="translate(-206.44698,-224.10947)"
         id="path363" />
      <path
         style="fill:#00ffff;stroke-width:1.33333"
         d="m 514.83145,1116.3702 6.71528,-6.4059 -8.68252,0.5528 c -10.24477,0.6524 -16.85101,-1.2348 -22.89272,-6.5394 l -4.38436,-3.8496 -3.40808,2.6808 c -1.87444,1.4745 -5.93371,3.8116 -9.02059,5.1936 l -5.6125,2.5128 4.5193,2.4342 c 12.73462,6.859 21.13214,9.6198 29.61844,9.7374 5.91442,0.082 6.97328,-0.4267 13.14775,-6.3167 z"
         transform="translate(-206.44698,-224.10947)"
         id="path361" />
    </g>
  </g>
</svg>
